<?xml version="1.0" encoding="UTF-8"?>
<svg xmlns="http://www.w3.org/2000/svg" baseProfile="tiny-ps" viewBox="0 0 640 640" version="1.2"><title>The Global Trend Hub</title><path fill="#1a1a1a" d="M1 320v-320h640v640h-640zM155 617l-3-16-1 2 2 16q3 3 2-2m8-3l-1-5 4 3 5 4 2 1c1 0 0-16-2-17q-2-3-2 4v4l-5-3q-7-7-6-2l1 6 1 7 2 3zM185 608l-1-7h3q3 0 3-2 0-2-4-2-10 1-10 3-1 2 2 2 4 0 4 3v7q0 3 2 3 2 1 1-7m20 4l2-2q1-3-5-1l-5-1q0-2 3-3 8-3 2-3h-5q-3-1 0-3l5-1q4-1 2-3l-11 2 2 16h5zM213 609q0-7 5-1l4 2q2 0-2-5v-3q3-4 0-8-2-3-7-1-5 0-5 2l1 8 2 9zM213 599v-2q4-1 5 2-2 4-5 0m18 8l-1-4v-4l5 3 5 4c1-1 1-13-1-17q-2-5-2 3v5l-3-2-5-3-3-1 1 9 1 8zM252 601l4 1q5 2-1-6l-3-7v-2l-2 2a32 32 0 0 0-6 15q0 3 2 0 3-3 6-3m14 1c1-2-1-11-2-11q-2 0-2 6 0 8 2 6zM276 597q0-2 4 1 5 5 9 0 6-4 1-12-3-5-7-4l-6 3q-5 4-6 0l-5-1q-12 1-10 4 0 4 9 1l6-1 2 5 2 7zM278 593c-2-4 4-9 8-6l2 4q0 3-4 3zM299 596l-1-5q-2-6 5 1 8 8 6-3l-3-12q-2-1-1 7l1 3-6-4-6-4 1 9 1 9h2zM315 593c1-3 7-4 8-1q4 4 4 0c0-2-10-16-11-15l-4 16q2 4 3 0m1-7l1-2 3 2q1 1-1 1zM76 592q8-1 7-3h-1l-6 1-5 1-2 1-3-1 9-3 8-1a388 388 0 0 0-5-61v-8h3l17-4q2 0 2-10l-1-9-17 2-31 4-19 3h-3l1 8c1 10 1 10 5 9q6 0 2 1l-4 2 15-2 9-1 2 21 5 46q0 7 2 6zM55 518h2l-1 1q-2 0-1-1m282 74q3 0 2-2 1-3-5-2h-3l-1-5q-1-9-3-8c-1 1 1 14 2 17l3 1zM352 586q0-3 4-3 4-1 3-3 1-2-4-2l-4-1 4-2q4-1 4-3 1-3-4-1l-6 1 1 17q2 2 2-3m-230 0l9-2q3-3-8 0-12 2-9-1l9-2 8-1v-9c-3-21-3-21 0-21l5-2q2-2 9 10l19 23 1-1 3-1 15-3-3-1-9 2q-6 0 4-2l8-2-11-16-12-16 5-4q9-6 9-19-1-19-16-27c-6-2-7-2-17-2l-24 2-14 2q-2 0 1 28l4 39q3 29 5 27zM125 530l-1-11-1-7 8-1c14-2 18-1 21 6v6c-2 5-4 6-14 8-12 3-12 3-13-1m241 57q3-5 8-1l3 1c1 0 1-5-1-6l-5-7-4-4-4 18q0 4 3-1m2-8h1l2 2h-2zM390 583l2-4q0-3-6-5l-3-1q1-2 6-3 3-1 0-2-9-2-10 4 0 5 5 6c5 0 4 4-1 4q-5 1-2 3 6 1 9-2m11-7q3 0 3 3l3 5v-16q-2-7-3 0 1 5-4 4-3 1-4-3-3-6-3 0l1 7 2 7q1 2 1-3 0-5 4-4m15-3l-3-9q-1-3-1 1l2 16h2zM435 576q4-2 2-6-2-8-9-9-7 2-9 8l3 6q6 7 13 1m-10-3c-4-5 2-11 7-7q3 4 0 7-4 3-7 0m-226 3l22-4 18-2 9-2v-3l-4-20-42 6-2-17 18-2q19-2 20-4l-1-10c-1-9-1-9-3-9l-18 3-18 3q-1 2-2-4c-1-10-1-10 2-10l39-6-1-10c-1-12 1-11-18-8l-29 4-17 3 2 15 12 79zM192 574l31-5q2 0-1 1l-6 1q-14 3-22 3zM233 568l5-2 7-1 11q0 2-1 1l-6 1zM444 572v-4l2 1 5 4q5 5 4-3-2-12-4-13-2 1-1 7 1 4-6-2l-5-3 2 16 2 2q2 1 1-5m37-2q3-2 1-5l-2-6q0-6-8-5l-5 1v3l3 14c1 2 9 0 11-2m-9-3v-2h4q5 1 1 3-6 2-5-1m-1-7c0-2 6-3 6-1q1 2-3 2-4 0-3-1m19 7q0-6 4-1l5 2h3l-3-3q-4-2-1-4 3-3-1-7-1-3-7-2l-5 1 2 17h2q2 0 1-3m-2-9q2-4 6-2 2 3-3 4-3 0-2-2m-226 8q13-2 5-2l-10 1h-5q2-2 9-2c9-2 9-2 9-4l-7-50q1 3 18 21l13 16 5 5q1-1 4 3 3 4 5 3l10-2q8 0 6-4l-15-85q-1-4-3-3l-10 2q-9 1-7 2l3 20 5 31-20-22c-10-12-24-25-26-25l-7 1-6 1v5l3 18 3 28c5 33 7 44 9 43zM508 565q1-2 5-2l3 1 2 1q5 0 0-5l-5-7-4-4-4 15q0 5 3 1m2-7l1-1 1 1zq-2 0-1-1M525 562l-1-5-1-3 5 3 8 5-3-15q-3-5-3 2v4l-5-4-5-3 1 8 1 8 2 1zM548 560q9-6 3-13-3-4-9-3-6-1-4 3l1 6q0 12 9 6m-5-3l-1-4q-2-5 2-4 8 1 3 7-3 3-4 1m-224 2q10-3 4-2l-9 1q-8 1-3 2zM361 550c7-1 18-6 17-7l-4 1-6 2-3 1-3 1-11 2-9 1 5-1a105 105 0 0 0 38-14l1-2q3-3 4-2 1 1 2-2c5-8 6-32 1-44a42 42 0 0 0-40-29c-10 0-37 4-37 6l8 51 8 40c-1 2 0 2 11 0zM336 550h3q1 1-2 1-3 0-1-1m9-30l-7-44q-1 2 10 2c8 0 10 0 14 2q8 4 11 11 9 18-4 30-6 6-17 7h-5zM383 539l2-2zq-4 3-2 3zM436 538q8-1 7-2l-17 3q-1 1 2 1zM438 534h6l-1-5-3-14-2-12q-2-6 2-6l23-3c2 1 3 2 4 14a72 72 0 0 0 7 23c1 3 1 3 10 1l10-2q2-2-9 1l-10 1 1-1 10-2 8-1v-3l-3-10-9-42-4-20-2-12v-3q-1-2-11 1-10 2-9 3a125 125 0 0 0 7 31c1 1 0 2-14 4l-14 2q-2 1-3-4l-6-31-9 1q-10 2-9 4l1 7q1 13 5 31l3 18 7 31q0 3 5 1zM389 533q1-3-1 0l-1 1zM543 523l7-5-3 1-5 2 3-2 5-4q3-2 2 1l6-9q5-9 0-28l-10-50q1-1-1-1l-19 3 2 15 2 10 2 12 5 24q0 12-14 11-6 0-9-4c-4-4-5-7-10-30-8-36-7-34-9-34l-16 2v5l4 19a226 226 0 0 0 10 42 38 38 0 0 0 15 16l4 2v1q2-1 7 1l3 1-9-1q-8-1 0 2l13 1c8 0 10-1 15-3m55-7q15-2 19-6l3-2-4 1h-3l3-1 6-3c16-7 14-37-3-41q-6 0 0-6c3-3 3-3 3-11 0-7 0-8-4-13-7-11-18-13-44-9l-18 2-3 1 10 51 3 19 3 15 2 4q-1 3 7 2zM583 514l8-1h3l-4 1zh-4zM599 512l7-1-1 1zq-6 0 0-1M586 492l-2-14q-1-2 7-2c13-2 14-2 17 0q6 3 5 8-2 6-14 7-13 4-13 1m-8-37l-2-12 10-1h11l3 3q4 5 1 8-2 3-11 4c-12 2-11 2-12-2m-528 31l36-5 22-3-1-5v-5l-9 2-17 2-31 4-22 3v3q0 8 6 6zM141 474h4l-1-9-3-25v-6h5l7-1c3-1 3-1 2-10q0-4-5-2l-20 2-16 3v7l1 6 7-1h6q2 1 2 15c0 14 2 16 2 18q1 6 9 3m33-4l-1-9v-14q3 3 14 0c4-1 4-1 6 12 2 7 2 7 8 7q5-1 4-4l-5-41c-1-8-1-7-8-6h-4l1 10v10h-6c-13 2-12 2-13-6-1-11-1-11-6-10l-6 1c-1 1 4 44 6 49q0 2 5 2zM54 465l29-4c21-3 21-3 21-7q1-3-1-3-3-1-14 1l-61 8v5l1 3h5zM232 462l16-3 1-6-1-5h-20q-6 1-5-3l-1-3 9-1 10-1q3-2 0-9-1-4-4-3l-11 2h-6l-1-3v-3l12-2 12-2v-7q-1-6-3-5l-18 3q-18 3-17 4l7 46q1 3 4 3zM300 450l6-4 4-5 3-3-1-10-2-9-10 1-10 2c-1 1 1 10 2 9h4l3-1q4 0 1 5-3 4-11 5-9 0-13-7-5-12 8-19c5-2 13-2 14 0q2 0 5-4l5-4-6-3a27 27 0 0 0-39 21q-1 18 18 27 10 3 19-1m-259-3l54-7 8-1v-5q0-5-3-4c-5 0-65 8-72 10q-3-1-2 4 1 7 4 4zM339 445l15-2v-6q0-7-4-6l-11 1-9 2-3-20-4-19-2 1-5 1h-3l1 10 3 20 4 20c1 1 2 1 18-2m49-7q11-6 11-11v-1q2 1 3-3c9-18-15-42-34-33a41 41 0 0 0-16 18q-3 15 8 24l5 4c4 4 16 5 23 2m8-8l1-2zl-2 2zM370 426c-10-5-10-19 0-24q6-4 13-1 6 3 2 0-3-3 2 0a20 20 0 0 1 7 13q-1 7-8 11-10 4-16 1m53 8l11-2c4-1 12-6 11-7l1-2 2-8c1-5 0-5-3-8l-5-4q-2 0 1-4 2-4-1-10-2-6-11-7h-14l-11 2q-2 0-1 4l9 43c1 4 1 5 11 3m-8-2h2zq-2 0-1-1M441 425l2-1zM419 416l-1-5 8-1q9 0 9 2 3 5-7 7l-7 1q-1 1-2-4m-4-20c0-4 0-4 8-4q7 0 6 3 0 3-4 4l-6 1q-3 1-4-4m46 31l1-6q0-5 2-4h11l9-1 3 3 3 4h5l5-2-26-40q-11-15-13 0l-5 18c-5 20-6 23-5 27q2 4 5 2zM466 406l3-9 7 8-5 1zM517 420c17-2 17-2 17-6l-1-7q-1-3-4-2l-11 1-7 1-4-19-4-19-5 1q-5 0-5 2l9 46q1 4 4 4zM566 411l19-3 33-5v-4l-1-4-6 1-67 11 1 4q0 4 7 3zM118 412l-4-8-2-3q3 4 5 3v3l3 1q2 2 0 1h-1l6 1 6-1q4 1-4-8l-8-12-10-17-21-45-1-8 2 3q4 7 5 1l1-2q1 1 1-4v-6l1-1-12 2c-1 2-6-16-8-31l-1-17c-2-26-2-26 2-25h16c15-2 17-2 16-4q-1-1 1-1l2-5 1-6h-13l-18 1c-7 0-7 0-4-16a257 257 0 0 1 25-65l6-11 1-4 4 2 18 4 15 3-2 8-7 25q0 3 8-2c9-5 9-5 10-11l4-12q3-9 6-6l29 2q15-2 21-8l1-3-21-2-24-2-2-1 3-7 13-19 8-13 13 2 16 2c4 0 4-1 0 18q-6 26 5 6l10-16q3-9 7-9l14-9-5-1q-7-1-5-3c1-5 21-34 22-33l2-2 8-6 8-5 1 3 2 10 5 27 6-1c7 0 7 0 5-9l-3-18-1-13 9 4a147 147 0 0 1 48 37l-5 2-4 2 7 4q8 4 8 2 2-2 1 0c-1 2 6 11 15 18l11 11 4 4-1-4-12-25-2-5 6-2 12-4c9-4 10-4 11-3l2 1 2 1 8 9c19 20 23 26 18 26l-41 10q-2 3 12 6 15 3 29-1l10-3c2 0 4 2 13 17q1 4 10 6l8 2c1-1-4-11-9-19q-8-12-4-11l17-5 15-5 4 4q17 19 26 32c10 15 24 46 22 47l-16 2-15 2 3 7 3 6h4q21-1 24-3c3-2 1-2 2 0 6 11 12 54 11 77a163 163 0 0 1-5 36c-2 8-2 10-1 16q0 6 2 6c1 0 6 6 6 9 0 5 5-5 9-19 15-52 7-119-21-171a260 260 0 0 0-90-96 260 260 0 0 0-51-27c-12-5-40-13-58-16-17-3-19-3-47-3a265 265 0 0 0-179 64 232 232 0 0 0-78 176c0 28 1 36 6 59q6 21 15 43a267 267 0 0 0 33 52q5 7 6 5m27-278h2q1 1-1 1-2 0-1-1m-6-13l-15-4c-2-1 12-17 29-32l9-8 4 1 11 3 7 1-5 6-18 27-6 9zM457 97l-16-17-13-13 8-2 10-3c5 0 43 26 43 30l-16 6c-14 5-13 5-16-1m-238-19q-17 0-4-8l13-9 12-8 17-9-7 9-11 17-4 9h-4zM185 71q-10-2 0-7c11-7 34-17 35-16l-5 5-14 12c-7 8-8 8-16 6m188-7l-25-24-5-5c2-1 55 24 55 26q0 2-13 5l-9 2zM411 55l-14-9q-17-8-9-8l37 13 4 2-5 2q-8 5-14 0m-250 343l-5-3c-1 1 7 6 9 6zM218 396l-3-4-1-2q-1 2 1 6 2 5 3 3 2-1-1-3m-149 2q4-1 4-7 1-5-2-6-5-4-9 0-4 4-2 9 2 5 6 4zM545 396v-1l14-2 51-7h6l-1-3q-1-8-3-7l-15 3-56 9c-1 1 3 9 4 9zM243 392l-10-22-9-19-8-11h-1l2-3h7l2-1h1l1-1q0-2 1 0c3 4 1-1-2-6q-15-25-16-23l2 3q3 2 0 4l-4 2q-2 0-2 4l-1 4v-1l-1-2q-3 0 2 9l3 7 8 16 9 17 6 11 5 9q3 4 2 1-1-3 1 1l2 4 1 1zM289 389l1-2c0-1-6-2-7 0q-1 4 6 2m-107-4l-6-1 2 1q10 3 4 0m134 0c1-1-5-4-6-3q-3 2 0 3zM285 382q7-3 0-4-6 1-5 4 0 3 5 0m36-1c0-2-7-6-8-6q-4 2 3 5zM551 375l25-4 35-5c1-1-2-9-3-9l-36 5-36 5q-2 0-1 2 1 9 4 7zM323 375c1-1-5-6-7-6q-2 2 2 5 4 3 5 1m-269-1l4-1 4-2-3-11-13-57c-4-24-4-24-11-21-3 1-3 1-2 9a411 411 0 0 0 21 84zM173 375l-40-6q-16 0-4-2l4-2 11-2q17-3 12-4l-4-1-36-7q-10-4-10-2l5 11c5 10 6 11 17 13 4 2 46 3 45 2m-50-14l-9-8c-2-3 7 2 7 3l3 1q2 0 1 1-2 1-1 2 3 2 2 0v-1l1 4zM284 374q3-2 1-4h-4q-5 0-4 3-2 3 7 1m-29 0l-1-2q-3-2-1 0zM204 354q-12-33-4-5c8 28 7 22 8 21zM327 369l-3-3q-3-2-4-1-1 1 2 3 4 4 5 1m-77-5l-3-5-9-12v2l-1 2 1 2 2 2q3 0 4 4l-1 2q-1 1 1 1 3-1 5 3 5 6 1 0m-11-13l1 1v1zM283 367l3-1q2-4-5-2-5 0-4 2l1 2zM454 360l3-15 3-18 3-19 2-17 2-9v-2l2-13c1-2 2 5 2 12q0 5 2 5 1-1 1 6c1 4 1-8 2-25a374 374 0 0 1 4-59l1-7-12-4c-34-12-41-13-48-9l-4 3 15 10 19 13-4 7-9 15-9 12-6 9-9 13c-6 8-8 15-5 12q2-2 1 0-3 3 0 3v2q-1 5 14-20c10-18 11-19 19-16 6 3 19 11 19 13l-16 26-21 36-10 16-4 9q-1 3 1 1l20-35 12-17 3-2q6-4 2 5l-11 26 1 1 1-1q-1-2 3-1l5-1q1-2 2-1l2-3q4-5 4-1l-4 38q0 15 2 2m5-84l2-2v2l-2 1zM463 272h-1q-3 1 0-2l2-2zM470 263q0-2-2-2l1-5 1-4v4l1 6v2zM330 364c1-1-4-5-6-5q-4 0 1 4 4 3 5 1m146-18v-29l-1-10v13l-2 28c-1 15-1 17 1 17zM282 360l3-1q1-3-5-2l-4 3q-1 2 1 2zM318 355l4-5 3-4-1-1q0-2 1-1 1 1 1-2 0-3 2-4l2-1 2-1q3-3 3-7l3-6 2-3v-1l4-3 5-5-1 1-1 1h2l1-2 1-1q3-1 4-6l3-3q3-1 2-3 0-2 4-6 9-10 10-13 0-3 2-3l1-2q0-2 1-1l11-11 20-24q2-1 3-5 0-2 1-1 2 0 9-8 10-10 13-10l-8 11-4 4 2 2q5 3 2-1-1-5 3-3 2 2 1 0l3-7 3-7-3-2-25-14q-42-22-46-30-5-10 8 0c10 8 12 9 23 7l10-3h2q0 2 1 1l-3-3q-7-4-5-9l1-2v2l4 4h5q5-2 2-7l-5-2q-6 0 0-1 3-1 7 3l3 6q-1 4-4 5l-1 3c-1 2-10 5-19 7q-4 0-3 2l1 2 39-11q3-1 0-2l-6-9a489 489 0 0 0-46-55c-17-18-23-21-40-23a136 136 0 0 0-63 5c-13 4-17 7-25 16a327 327 0 0 0-32 57l-13 30q0 2 9 2l15 1q14 2 20 0 5-2-4-2l-32-3q-1-1 1-1 2 0 1-1-1-1 2 0h7q8-1 2-1l-7-1q-5 0 1-11 2-5 6-4 4 0 6 3 4 6 1 11-3 2 0 3c3 1 17 2 20 1l9-8 9-8v3q1 3-8 12l-14 12-29 23-12 11 4 1c3 0 14 7 22 14l23 16 24 19q9 8 12 8 2-1 1 1-1 2 1 1 2-1 1 1l3 2 6 4q3 3 3 1 2 0 1 2v1q4-1 7 6 3 6 3 1 0-4-18-21-5-4-4-5l4 4q5 6 4 2l-1-1h-1v-3c1 1 10 6 9 4q-2-3 1-5 3 0 2 2-1 3 1-1l1-1q-2 0-3-6-2-3 1 0l1 3q-1 1 1 1 2 0 4 5 4 7 5 5 3-6-2-14a1026 1026 0 0 1-46-98c-10-23-16-55-14-77l1-8 4-2 17-5q34-9 65 2 5 2 8 23c3 15 3 47 0 65a1400 1400 0 0 1-45 181l-1 3 2-3zM327 327l8-22 4-11 3-8 1 2-1 1v4l1-1q1-2 6-1h5q2 0 1-1l-2-1v-1q1-1 2 1v3l-2 2-1 2q-1 3-3 3 0-1 0 0 0 4-3 4l-1-1 1-2 1-1q-1-1-2 1v3q2 2-1 6c-5 7-17 20-17 18m13-29l1 1zM341 295q-1-3 0 0v4h1zM231 239c-3-1-10-7-10-9 0-2 4-5 8-8q6-4 10 1 7 7 1 14-4 4-9 2m6-5q4-3 3-7l-3-3c-5-3-11 1-10 7q2 6 10 3m171-10q-6-2-5-8 1-6 7-8l2-1 5 2q5 2 4 6c-1 4-5 10-7 10zM416 219q3-5-2-9h-5q-3 2-3 5-1 3 2 4 6 3 8 0m-13-16l-5-3 11 6zM334 358l-5-5q-3 1-1 4 5 4 6 1m193-2l8-5 7-5a43 43 0 0 0 15-14l4-23q0-2-10 3l-18 7-12 5 4 1q14 3 14 5l2 1q4 0 1 1h-3c-1 0-26 5-30 7q-4 1 7 1h15l11-2c9-3 10-3-10 11q-16 12-5 6m-246-2q4-2 2-3c-1-1-9 2-9 3q0 4 3 2zM183 353l-11-3-21-7-44-11q-2 0-3 3-5 7 5 7l14 4 16 2-2-2q0-2 10 1l36 7h2zM337 353l-6-5q-1 1 2 4 3 3 4 1m64-7v-7q-3-6-9-6-4-1-6 6-1 3 4 7 8 8 11 0m-120-2q0-3-3-1l-4 1q-2 0-1 3 0 3 5 0zM340 348l-2-2-3-3v-2l-1 2q-3 3 1 4 5 4 5 1m93-7c0-2-3 3-4 6q-1 3 2-1zM344 343l-7-5q-3 1 1 4 5 3 6 1m-66-3q1-1-1-1l-4 1-1 1q1 2 6-1m69-1c0-2-5-6-7-6q-3 1 2 4 6 5 5 2m-67-3q1-3-6-2l-6 3c1 2 11 1 12-1m130-4l9-15 9-17c4-8 4-8 2-9q-4-2 0-2 4 1 2-4 0-5 2-4h4l4-1q3 0 2-4-1-2 3-7 5-4 3-6c-1-2-12-8-12-7l-3 6-5 9q-4 3-11 17-10 19-17 28l-8 15 4 1q3 0 5 3l3 3zM401 331c-1-1-1-1 12-22l8-14q4-9 4-4l-1 5q-2 5 1 1l2-1q-1 4-5 5l-3 5c-3 8-14 26-16 26zM432 277v2zM438 272c0-2 5-9 6-9q4 0-1 6-5 6-5 3m-5-2c0-2 5-9 6-9q3 0-1 6-4 6-5 3m-82 64l-6-6q-3 1 2 5 4 3 4 1m-200-5q3-1-2-2l-21-4c-17-5-20-5-21-1l-1 4 20 3 5 1c-1 1 18 1 20-1m126 1q4-2 0-3l-10 3zM353 326q-3-4-5-3-2 2 1 3 5 5 4 0m-111-4l-9-14-10-14-3-3c-2-1-7 1-7 3 0 2 4 6 6 6l10 12c5 7 13 15 14 14zM268 324l4-1q7 1 5-3c-1-3-11 0-11 3l1 2zM315 325q-1-2-3-1l1 1zM343 321h-2l-1 2h1zM356 320q-4-4-4-1 1 4 4 4h3zM194 307q-3-11 1-2c2 6 5 10 3 4q-2-8 1-9v3q-2 3 1 0l1-4 1 1 4 2-2-3-2-3 3 2 1 1-4-6q-6-7-6-3 0 5-1 0-3-7 0-8l3-5q1-5 7-9l7-4c3 0 11 5 13 9q4 7 3 12-2 4 5 11 5 5 3-4-2-11 0-14 3-1-7-8l-36-35q-1-3 20-22l8-8-5-3c-5-1-6-1-12 1l-43 23 5 13a644 644 0 0 1 27 79l1 4 1-5zM191 296l1-1 1 1-1 2zM190 292v-3l1 2v3zM192 289v-2l1 1v3zM230 280l1-2 1-2h-2q-3 1-1-1l2-1 1 1q1-1 1 3l-1 3v-2q1-2-1 0zM234 277l1-1 1 1zM314 320q4-3 1-4l-4 2q-6 7 3 2m-165 0q-3-1 2-1 4 0 3-1h2q-1-3 4-1l10 2 6 1c1-1-10-5-17-7l-26-6-20-5q-3 0-4 3l-2 5 21 6q28 7 21 4m0-5h3q2 1 0 1zM501 319l12-4 6-2q2 1 1-1-2-3 4 0l3 1 1-1 1 1 14-5 10-4 9-4-4-8h-5c-6 1-63 29-60 29zM268 317l4-1q4-1 3-3 0-2-2-2-6 2-8 6zM308 316q4-4 1-5-4 2-6 5 0 4 5-1m52 1q-4-5-5-2 0 3 5 4zM365 313q-1-4-6-4-2 2 2 4 4 3 4 0m-63-2q3-3 1-4-1-1-3 2-6 9 2 2m321 0q5-5 0-10-6-5-11 1-3 2-2 6 4 10 13 3m-411-1q-2-2-3 0l3 2zM273 307q2-1 1-2-4-2-8 2l-2 3 4-1zM297 307q3-3 1-4-1-1-3 2-4 5-1 5zM369 308l-2-3q-3-3-4-1-1 1 1 3 5 3 5 1m-217-3l-1-1q-2 0 0-1l5-1h1q-1-1 2-2l3-1-7-3-42-10-1 5q-2 5 1 6l3 1 14 3 13 3h1l3 1 4 1zM209 302q-1-3-1 0 0 2 1 1v1l1 1zM292 303q5-6-3-3-4 3-2 4 1 3 5-1m-22 0h-1q-2 0 1-2 6-5-2-2-7 4-1 5zM373 303l-3-3q-7-2-3 2 5 3 6 1m-88-5q4-3 1-4-5 2-5 5 1 2 4-1m92 1c0-1-5-5-7-5q-3 1 2 4 5 3 5 1m27-3l-1 3 1-1zM528 297l26-11q2-1-1-6l-3-5-14 5-27 12-2 2q-2 2 4 0 4-2 6 1l4 1h3q0 2-5 1-2 0 0 1c2 1 2 1 9-1m-3-2l1 1-1 1zM517 294v-2l2 1h2q2 0 0 1zM266 296l-1-3-1-3q-2-5-1 3 2 7 3 3m14-2l1-3q-4-1-5 3 0 4 4 0m117 1l1-3 1-2-2 2-1 3zM379 292q-3-3-5-2-3 0-1 2l7 3q2 0-1-3m-107 0q6-4 5-6l-6 4q-7 7 1 2m137-3c0-2-4 3-4 5l2-2q3-2 2-3m-27-2q-4-5-4-1l6 5zM220 287q4-5 0-11-5-5-11-1-7 4-4 10 5 8 15 2m247-2v4zM623 283c-1-15-6-50-9-56q0-3-4-3-4 0-4 2l3 29 2 20c2 16 2 15 7 15h5zM156 288q-1-5 6-4h4l-2-2c-4-3-9-4-29-9l-18-3q-2 0-2 5c-1 5-1 5 17 9l24 5zM407 288h-3l1 1zM497 286l10-5-1 3q-1 3-2 1-2-2-1 0c2 3 5 2 29-9l15-8 3-3-3-3-4-3a216 216 0 0 0-46 27m10-2l1-1 1 2h-1zM196 287l-1-1v1l1 1zM269 286q5-3 2-4-4 1-6 5c-2 4 1 1 4-1m117-4q-5-3-6-1l8 4zM407 282v-5l-2 2q-3 4-1 4v-1q1-2 3 1l1 2zM265 281l1-4q-4-2-4 4 1 4 3 0m126-3q-5-4-7-3-1 1 3 4 7 3 4-1m78 1l-1-1v1q1 2 1 0m-207-5q-1-2-3-1-4 2-1 5 1 2 3-1zM255 273q2-6-3-2-3 2-1 3 4 3 4-1m137-1q-3-4-4-1l6 4q1-1-2-3m77 0l1 1zM249 268q4-2 1-3 0-3-4 1l-1 3q1 3 4-1m148-1q-3-5-5-1-1 3 5 4zM521 262l17-7 4-2q3-1-4-10l-22 10c-16 8-19 9-17 11l1 1 2-2h2v2l1 3c-1 3-1 3 16-6m-15 5h3l-2 1q-2 0-1-1m-465-1c9-7 8-19-1-23q-11-5-19 4a13 13 0 0 0-1 15c4 6 16 8 21 4m111 0q-4-3-3-1 1 1-4 1-7-1-5-4l5 1 1 1 1-3q-2-2 2-2h3q0-4 2-4l3-2 1-3 2 3q6 11-5-19-17-44-20-44l-3 5-11 64c-1 4 1 5 17 7l15 1zM400 262q-3-5-4-1c-1 2 3 6 5 4zM244 263q2-4-1-4l-5 5q1 3 6-1m-6-4v-3q-1-2-3 1-3 7 3 2m167-1q-4-5-5-3l-1 2 6 3zM233 255q2-3 0-4-4 1-4 5 0 3 4-1m177-1l-2-3q-3-3-3-1-3 3 0 4 4 2 5 0m-180-5l-2-2q-2-2-3 2-3 5 2 3zM497 246l3-1-2 2q-2 3 0 2 2-1 2 1-1 4 13-2l15-7 7-4q3-1-1-6-2-5-4-5l-17 8a68 68 0 0 0-20 12c-4 4-5 8-1 4zM416 249l-8-5q-1 1 2 4 4 3 6 1m-194-3q3-3-1-3l-2 2q0 4 3 1m198-1c0-1-7-6-8-5q-2 1 3 4 5 3 5 1m-202-5h-5v2q3 1 5-2m206 0l-7-5q-2 1 1 5 6 2 6 0m64-5l1-3 10-4 5-3q2 0 1 1l-1 2v1l-3 2 21-7c5-3 6-2-8-31l-15-32-2-2c-1 0-4 9-6 19a361 361 0 0 0-3 57m-63-1q-3-5-5-4c-2 1 4 6 5 6q3 1 0-2m-386-14l6-33a300 300 0 0 1 20-64l1-1 2-3 4-7q6-7 2-9h-5q-4 1-6 6l-3 6-3 5-3 8-3 7-3 8c-5 9-14 42-18 71-2 16-2 15 3 15l5-1zM168 216l6-4 2-1-5-11-6-12c-1-1-13 4-13 5l5 11 5 12q0 5 6 0m-11-3l-9-17 6 13q6 10 3 4m457-3q8-6 3-17c-2-2-9-6-13-6q-6 1-10 6c-6 11 9 24 20 17m-427-5l5-3-9-21-3-3-6 3-4 3 11 24zM481 191q5-22 3-22-4-2-3 3l-2 12-1 9q2 1 3-2m-285-2l2-7q5-12 3-14l-14 8 3 9q5 10 6 4m-40-2l15-8 13-7 8-4 10-6c6-3 6-3 8-8q3-6 0-5l-19 8-51 28q0 2 2 3c3 4 5 3 14-1m318 2l4-21c0-2-11-6-12-5l-5 21q0 3 4 4l5 2q3 2 4-1m-18-4l2-11c3-15 3-14-3-16l-6-2-5 22q-1 4 6 5zM228 179q5-2 0-8-4-3-7 3-3 8 7 5m211-2l-1-1-1 2 1 1zM593 176v-1l2 1h5c1-3-10-30-16-42a207 207 0 0 0-32-45l-4-7q-5-10-13-10-4 0-5 3v3h1c-1 2 4 8 8 10l6 2 2 2q0 3 4 9l17 24q2 0 1 3v1q1-1 3 1 1 3-1 1-3-2-1 1l2 2h1c-1 2 4 11 5 10v1q-1 4 2 4v1c-1 2 5 13 6 12q1-2 0 0c-1 2 5 15 6 15zM444 156c0-2 0-2-9-4q-13-4-7 1l11 15q1 2 3-5zM488 162l1-5-14-4-35-12c-21-7-27-9-27-7l7 9 67 22zM308 126c0-2-2-2-15-2l-15 1q0 2 20 2zM326 125l12-3 3-2-4 1c-27 3-27 3-26 5q1 2 15-1m-240-26l2-4 1-3c1-2-3-7-6-7q-7 1-9 7c-1 8 6 12 12 7m433-32l-3-2zq6 4 11 2c1-1-3-8-7-11-4-3-11-4-12-2v3l1 3 1 2v-2l1 2q-1 2 4 5 4 3 0-2M502 46c-4-4-10-7-10-4 0 2 6 7 9 9q4 2 3-1z"/></svg>
